<?xml version="1.0" encoding="UTF-8" standalone="no"?>
<svg
   xmlns:osb="http://www.openswatchbook.org/uri/2009/osb"
   xmlns:dc="http://purl.org/dc/elements/1.1/"
   xmlns:cc="http://creativecommons.org/ns#"
   xmlns:rdf="http://www.w3.org/1999/02/22-rdf-syntax-ns#"
   xmlns:svg="http://www.w3.org/2000/svg"
   xmlns="http://www.w3.org/2000/svg"
   xmlns:xlink="http://www.w3.org/1999/xlink"
   width="1500"
   height="748"
   viewBox="0 0 396.87 197.90584"
   version="1.1"
   id="svg492">
  <defs
     id="defs486">
    <rect
       id="rect3297"
       height="31.816063"
       width="365.31671"
       y="-24.115297"
       x="-98.51371" />
    <rect
       id="rect3287"
       height="36.351475"
       width="178.68877"
       y="137.26929"
       x="177.83315" />
    <linearGradient
       id="linearGradient3227">
      <stop
         id="stop3223"
         offset="0"
         style="stop-color:#c8ab37;stop-opacity:1" />
      <stop
         id="stop3225"
         offset="1"
         style="stop-color:#ffcc00;stop-opacity:0.77999907" />
    </linearGradient>
    <linearGradient
       id="linearGradient3003">
      <stop
         id="stop2999"
         offset="0"
         style="stop-color:#ffdd55;stop-opacity:1" />
      <stop
         id="stop3001"
         offset="1"
         style="stop-color:#ffcc00;stop-opacity:1" />
    </linearGradient>
    <linearGradient
       osb:paint="solid"
       id="linearGradient2989">
      <stop
         id="stop2987"
         offset="0"
         style="stop-color:#c8c4b7;stop-opacity:1;" />
    </linearGradient>
    <rect
       id="rect899"
       height="83.648621"
       width="81.717041"
       y="51.288883"
       x="65.247398" />
    <rect
       x="29.104168"
       y="34.395836"
       width="100.54167"
       height="31.750002"
       id="rect558" />
    <rect
       id="rect558-0"
       height="31.750002"
       width="100.54167"
       y="34.395836"
       x="29.104168" />
    <rect
       id="rect37"
       height="31.750002"
       width="100.54167"
       y="34.395836"
       x="29.104168" />
    <rect
       x="29.104168"
       y="34.395836"
       width="100.54167"
       height="31.750002"
       id="rect558-0-5" />
    <rect
       x="29.104168"
       y="34.395836"
       width="100.54167"
       height="31.750002"
       id="rect103" />
    <rect
       id="rect74"
       height="31.750002"
       width="100.54167"
       y="34.395836"
       x="29.104168" />
    <rect
       x="65.247398"
       y="51.288883"
       width="81.717041"
       height="83.648621"
       id="rect899-7" />
    <rect
       x="65.247398"
       y="51.288883"
       width="81.717041"
       height="83.648621"
       id="rect912" />
    <linearGradient
       gradientUnits="userSpaceOnUse"
       y2="49.721973"
       x2="285.0853"
       y1="49.721973"
       x1="186.40414"
       id="linearGradient3005"
       xlink:href="#linearGradient3003" />
    <linearGradient
       y2="44.057228"
       x2="281.94495"
       y1="44.057228"
       x1="184.23576"
       gradientUnits="userSpaceOnUse"
       id="linearGradient3237"
       xlink:href="#linearGradient3227" />
    <rect
       id="rect3279"
       height="31.750002"
       width="100.54167"
       y="34.395836"
       x="29.104168" />
    <rect
       id="rect3333"
       height="31.750002"
       width="100.54167"
       y="34.395836"
       x="29.104168" />
    <rect
       x="177.83315"
       y="137.26929"
       width="178.68877"
       height="36.351475"
       id="rect3335" />
    <rect
       x="-98.51371"
       y="-24.115297"
       width="365.31671"
       height="31.816063"
       id="rect3337" />
    <rect
       x="29.104168"
       y="34.395836"
       width="100.54167"
       height="31.750002"
       id="rect232" />
    <rect
       id="rect234"
       height="36.351475"
       width="178.68877"
       y="137.26929"
       x="177.83315" />
    <rect
       id="rect236"
       height="31.816063"
       width="365.31671"
       y="-24.115297"
       x="-98.51371" />
    <rect
       x="29.104168"
       y="34.395836"
       width="100.54167"
       height="31.750002"
       id="rect1326" />
    <rect
       id="rect1328"
       height="36.351475"
       width="178.68877"
       y="137.26929"
       x="177.83315" />
    <linearGradient
       xlink:href="#linearGradient3227"
       id="linearGradient1368"
       gradientUnits="userSpaceOnUse"
       x1="184.23576"
       y1="44.057228"
       x2="281.94495"
       y2="44.057228"
       gradientTransform="translate(71.485632,48.221667)" />
    <linearGradient
       xlink:href="#linearGradient3003"
       id="linearGradient1370"
       gradientUnits="userSpaceOnUse"
       x1="186.40414"
       y1="49.721973"
       x2="285.0853"
       y2="49.721973"
       gradientTransform="translate(71.485632,48.221667)" />
    <rect
       id="rect178"
       height="36.351475"
       width="178.68877"
       y="137.26929"
       x="177.83315" />
    <rect
       id="rect236-3"
       height="31.816063"
       width="365.31671"
       y="-24.115297"
       x="-98.51371" />
    <rect
       id="rect225"
       height="31.816063"
       width="365.31671"
       y="-24.115297"
       x="-98.51371" />
    <rect
       id="rect296"
       height="36.351475"
       width="178.68877"
       y="137.26929"
       x="177.83315" />
    <rect
       id="rect298"
       height="31.816063"
       width="365.31671"
       y="-24.115297"
       x="-98.51371" />
    <rect
       id="rect340"
       height="36.351475"
       width="178.68877"
       y="137.26929"
       x="177.83315" />
    <rect
       id="rect342"
       height="31.816063"
       width="365.31671"
       y="-24.115297"
       x="-98.51371" />
    <rect
       x="-98.51371"
       y="-24.115297"
       width="365.31671"
       height="31.816063"
       id="rect3337-6" />
    <rect
       x="-98.51371"
       y="-24.115297"
       width="365.31671"
       height="31.816063"
       id="rect353" />
    <linearGradient
       xlink:href="#linearGradient3227"
       id="linearGradient418"
       gradientUnits="userSpaceOnUse"
       gradientTransform="translate(71.485632,48.221667)"
       x1="184.23576"
       y1="44.057228"
       x2="281.94495"
       y2="44.057228" />
    <linearGradient
       xlink:href="#linearGradient3003"
       id="linearGradient420"
       gradientUnits="userSpaceOnUse"
       gradientTransform="translate(71.485632,48.221667)"
       x1="186.40414"
       y1="49.721973"
       x2="285.0853"
       y2="49.721973" />
    <linearGradient
       xlink:href="#linearGradient3227"
       id="linearGradient422"
       gradientUnits="userSpaceOnUse"
       gradientTransform="translate(71.485632,48.221667)"
       x1="184.23576"
       y1="44.057228"
       x2="281.94495"
       y2="44.057228" />
    <linearGradient
       xlink:href="#linearGradient3003"
       id="linearGradient424"
       gradientUnits="userSpaceOnUse"
       gradientTransform="translate(71.485632,48.221667)"
       x1="186.40414"
       y1="49.721973"
       x2="285.0853"
       y2="49.721973" />
    <linearGradient
       xlink:href="#linearGradient3003"
       id="linearGradient1035"
       gradientUnits="userSpaceOnUse"
       gradientTransform="translate(-137.54357,55.430301)"
       x1="186.40414"
       y1="49.721973"
       x2="285.0853"
       y2="49.721973" />
    <linearGradient
       xlink:href="#linearGradient3227"
       id="linearGradient1037"
       gradientUnits="userSpaceOnUse"
       gradientTransform="translate(-137.54357,55.430301)"
       x1="184.23576"
       y1="44.057228"
       x2="281.94495"
       y2="44.057228" />
  </defs>
  <metadata
     id="metadata489">
    <rdf:RDF>
      <cc:Work
         rdf:about="">
        <dc:format>image/svg+xml</dc:format>
        <dc:type
           rdf:resource="http://purl.org/dc/dcmitype/StillImage" />
        <dc:title></dc:title>
      </cc:Work>
    </rdf:RDF>
  </metadata>
  <g
     id="layer1"
     style="display:none">
    <path
       id="path895"
       d="m 220.87284,130.99256 -36.63707,-101.464346 49.72175,7.25473 -3.03097,-79.661047 51.01841,104.439832 -57.45014,-5.802118 z"
       style="fill:url(#linearGradient3237);fill-opacity:1;stroke:none;stroke-width:0.239752px;stroke-linecap:butt;stroke-linejoin:miter;stroke-opacity:1" />
    <path
       style="mix-blend-mode:normal;fill:url(#linearGradient3005);fill-opacity:1;stroke:none;stroke-width:0.240942px;stroke-linecap:butt;stroke-linejoin:miter;stroke-opacity:1"
       d="m 220.54528,137.08818 -34.14113,-102.326094 16.27181,2.747533 35.99205,6.07735 -5.10861,-81.231201 51.5259,104.439833 -58.02163,-5.802119 z"
       id="path536" />
    <text
       xml:space="preserve"
       id="text556"
       style="font-style:normal;font-weight:normal;font-size:10.5833px;line-height:1.25;font-family:sans-serif;letter-spacing:0px;word-spacing:0px;white-space:pre;shape-inside:url(#rect558);fill:#000000;fill-opacity:1;stroke:none;"
       transform="matrix(6.7811248,0,0,6.7811248,-267.22499,-177.73503)"><tspan
         x="29.103516"
         y="43.760224"><tspan
           style="fill:#d4aa00">RAY</tspan><tspan
           style="font-style:normal;font-variant:normal;font-weight:normal;font-stretch:normal;font-family:Retroica;-inkscape-font-specification:Retroica">DES TE</tspan></tspan></text>
    <text
       xml:space="preserve"
       style="font-style:normal;font-weight:normal;font-size:77.4018px;line-height:1.25;font-family:sans-serif;letter-spacing:0px;word-spacing:0px;fill:#000000;fill-opacity:1;stroke:none;stroke-width:1.93505"
       x="-178.28609"
       y="-90.970795"
       id="text633"
       transform="matrix(-1.28047,0.03363195,-0.0204981,-0.78042485,0,0)"><tspan
         id="tspan631"
         x="-178.28609"
         y="-90.970795"
         style="stroke-width:1.93505">i</tspan></text>
    <text
       style="font-size:35.2778px;line-height:1.25;font-family:Gilroy-Regular;-inkscape-font-specification:Gilroy-Regular;letter-spacing:0px;word-spacing:0px;white-space:pre;shape-inside:url(#rect3287);"
       id="text3285"
       xml:space="preserve"><tspan
         style="visibility:hidden"
         x="177.83398"
         y="204.83368"><tspan
           dx="0 22.393135 20.877293 11.213795 26.38945 21.394058 21.549088 26.527252 24.132904 19.654282 10.404205 22.28978 11.213791 24.511871 10.404205 21.876373">by NATHALIE RIVA</tspan></tspan></text>
  </g>
  <g
     id="g1324"
     style="display:inline">
    <path
       id="path1302"
       d="M 292.35847,179.21423 255.7214,77.749881 305.44315,85.004611 302.41218,5.3435642 353.43059,109.7834 295.98045,103.98128 Z"
       style="fill:url(#linearGradient1368);fill-opacity:1;stroke:none;stroke-width:0.239752px;stroke-linecap:butt;stroke-linejoin:miter;stroke-opacity:1" />
    <path
       style="mix-blend-mode:normal;fill:url(#linearGradient1370);fill-opacity:1;stroke:none;stroke-width:0.240942px;stroke-linecap:butt;stroke-linejoin:miter;stroke-opacity:1"
       d="m 292.03091,185.30985 -34.14113,-102.326097 16.27181,2.747533 35.99205,6.07735 -5.10861,-81.231201 51.5259,104.439835 -58.02163,-5.80212 z"
       id="path1304" />
    <g
       id="g978"
       transform="matrix(0.97010092,0,0,0.9602142,4.0684458,6.6533864)">
      <path
         d="m 33.46868,142.70055 q 2.277753,0.77094 4.415333,3.29398 2.172625,2.52305 4.345249,6.93838 l 7.18368,14.29727 h -7.604184 l -6.693085,-13.42121 q -2.593136,-5.25635 -5.046093,-6.97342 -2.417925,-1.71707 -6.623002,-1.71707 h -7.709312 v 22.1117 H 8.658721 v -52.31819 h 15.979293 q 8.970839,0 13.386171,3.74953 4.415333,3.74953 4.415333,11.31867 0,4.94097 -2.312798,8.1999 -2.277745,3.25894 -6.65804,4.52046 z M 15.737266,120.72902 v 18.57243 h 8.900748 q 5.116183,0 7.709312,-2.34783 2.628174,-2.38288 2.628174,-6.97343 0,-4.59054 -2.628174,-6.90334 -2.593129,-2.34783 -7.709312,-2.34783 z"
         style="font-style:normal;font-weight:normal;font-size:10.5833px;line-height:1.25;font-family:sans-serif;letter-spacing:0px;word-spacing:0px;white-space:pre;fill:#d4aa00;fill-opacity:1;stroke:none;stroke-width:6.78112"
         id="path1330" />
      <path
         d="m 73.101547,121.88542 -9.601598,26.03644 h 19.238234 z m -3.994822,-6.97343 h 8.024688 l 19.939084,52.31819 h -7.35889 L 84.945853,153.80897 H 61.362369 l -4.765754,13.42121 h -7.464018 z"
         style="font-style:normal;font-weight:normal;font-size:10.5833px;line-height:1.25;font-family:sans-serif;letter-spacing:0px;word-spacing:0px;white-space:pre;fill:#d4aa00;fill-opacity:1;stroke:none;stroke-width:6.78112"
         id="path1332" />
      <path
         d="m 91.954315,114.91199 h 7.604184 l 14.507521,21.51599 14.40239,-21.51599 h 7.60419 l -18.50235,27.4031 v 24.91509 h -7.11359 v -24.91509 z"
         style="font-style:normal;font-weight:normal;font-size:10.5833px;line-height:1.25;font-family:sans-serif;letter-spacing:0px;word-spacing:0px;white-space:pre;fill:#d4aa00;fill-opacity:1;stroke:none;stroke-width:6.78112"
         id="path1334" />
    </g>
    <path
       d="m 161.40961,116.99351 q 5.1672,0 9.6885,2.00947 4.59307,1.9377 7.9661,5.31073 3.4448,3.37303 5.45427,7.9661 2.00946,4.59306 2.00946,9.83203 0,5.16721 -2.00946,9.76027 -1.9377,4.5213 -5.31074,7.9661 -3.37303,3.44481 -7.9661,5.45427 -4.59307,1.9377 -9.83203,1.9377 h -20.52528 v -50.23667 z m -0.71767,39.83051 q 3.0142,0 5.66957,-1.14827 2.72713,-1.14827 4.66483,-3.08597 2.00947,-2.00947 3.15774,-4.66484 1.14826,-2.72713 1.14826,-5.8131 0,-3.01419 -1.14826,-5.66956 -1.14827,-2.72714 -3.15774,-4.7366 -1.9377,-2.00947 -4.66483,-3.15773 -2.65537,-1.14827 -5.66957,-1.14827 h -9.0426 v 29.42434 z"
       style="font-style:normal;font-variant:normal;font-weight:normal;font-stretch:normal;font-size:10.5833px;line-height:1.25;font-family:Retroica;-inkscape-font-specification:Retroica;letter-spacing:0px;word-spacing:0px;white-space:pre;fill:#000000;fill-opacity:1;stroke:none;stroke-width:6.78112"
       id="path1336" />
    <path
       d="m 226.14307,157.18285 v 10.04733 h -31.79264 v -50.23667 h 31.36204 v 10.04733 H 204.9719 v 10.04734 h 15.57337 v 10.04733 H 204.9719 v 10.04734 z"
       style="font-style:normal;font-variant:normal;font-weight:normal;font-stretch:normal;font-size:10.5833px;line-height:1.25;font-family:Retroica;-inkscape-font-specification:Retroica;letter-spacing:0px;word-spacing:0px;white-space:pre;fill:#000000;fill-opacity:1;stroke:none;stroke-width:6.78112"
       id="path1338" />
    <path
       d="m 273.29368,153.37921 q 0,4.306 -1.79417,7.24844 -1.7224,2.87067 -4.66483,4.66483 -2.94243,1.7224 -6.74606,2.51183 -3.73187,0.78944 -7.67904,0.78944 -6.8896,0 -12.0568,-3.2295 -5.09544,-3.2295 -8.39671,-8.1814 l 9.47321,-5.5978 q 0.78943,1.36356 1.9377,2.65536 1.22003,1.22004 2.65537,2.22477 1.43533,0.93297 3.08596,1.57887 1.7224,0.57416 3.4448,0.57416 1.43533,0 3.15774,-0.14356 1.7224,-0.2153 3.2295,-0.71767 1.5071,-0.57416 2.51183,-1.5071 1.00474,-0.93297 1.00474,-2.51183 0,-1.36357 -0.86121,-2.29654 -0.78943,-0.93297 -2.22476,-1.65063 -1.43534,-0.71767 -3.37303,-1.22004 -1.9377,-0.50234 -4.16248,-1.00473 -2.94243,-0.6459 -6.17192,-1.57887 -3.22951,-1.00473 -5.95664,-2.72713 -2.65537,-1.7224 -4.44954,-4.44954 -1.7224,-2.79889 -1.7224,-7.10489 0,-3.94717 1.57887,-6.96137 1.57887,-3.08597 4.16247,-5.09544 2.5836,-2.00946 5.88486,-3.01419 3.30127,-1.07651 6.74608,-1.07651 6.31546,0 11.26736,3.08597 5.02367,3.0142 8.46847,7.82257 l -8.97083,6.10016 q -0.64591,-1.22003 -1.72241,-2.44006 -1.0765,-1.22003 -2.44006,-2.22477 -1.36357,-1.00473 -3.0142,-1.65063 -1.57887,-0.6459 -3.37303,-0.6459 -1.36357,0 -2.72714,0.35885 -1.36357,0.35886 -2.51183,1.0765 -1.07651,0.71767 -1.79417,1.79417 -0.71767,1.00473 -0.71767,2.29653 0,1.14827 0.78943,2.00947 0.78944,0.78943 2.08124,1.43534 1.36357,0.57415 3.08597,1.07649 1.79417,0.50235 3.80363,1.00473 3.15773,0.78944 6.53077,1.86594 3.37303,1.00473 6.17193,2.87067 2.7989,1.79417 4.59307,4.66483 1.86593,2.87067 1.86593,7.3202 z"
       style="font-style:normal;font-variant:normal;font-weight:normal;font-stretch:normal;font-size:10.5833px;line-height:1.25;font-family:Retroica;-inkscape-font-specification:Retroica;letter-spacing:0px;word-spacing:0px;white-space:pre;fill:#000000;fill-opacity:1;stroke:none;stroke-width:6.78112"
       id="path1340" />
    <path
       d="m 339.39065,127.04084 h -14.56863 v 40.18934 h -10.765 v -40.18934 h -14.64041 v -10.04733 h 39.97404 z"
       style="font-style:normal;font-variant:normal;font-weight:normal;font-stretch:normal;font-size:10.5833px;line-height:1.25;font-family:Retroica;-inkscape-font-specification:Retroica;letter-spacing:0px;word-spacing:0px;white-space:pre;fill:#000000;fill-opacity:1;stroke:none;stroke-width:6.78112"
       id="path1342" />
    <path
       d="m 378.57511,157.18285 v 10.04733 h -31.79264 v -50.23667 h 31.36204 v 10.04733 h -20.74058 v 10.04734 h 15.57337 v 10.04733 h -15.57337 v 10.04734 z"
       style="font-style:normal;font-variant:normal;font-weight:normal;font-stretch:normal;font-size:10.5833px;line-height:1.25;font-family:Retroica;-inkscape-font-specification:Retroica;letter-spacing:0px;word-spacing:0px;white-space:pre;fill:#000000;fill-opacity:1;stroke:none;stroke-width:6.78112"
       id="path1344" />
    <g
       aria-label="i"
       transform="matrix(-1.28047,0.03106061,-0.0204981,-0.7207573,71.485632,56.736758)"
       id="text1316"
       style="font-style:normal;font-weight:normal;font-size:77.4018px;line-height:1.25;font-family:sans-serif;letter-spacing:0px;word-spacing:0px;fill:#000000;fill-opacity:1;stroke:none;stroke-width:1.93505">
      <path
         d="m -170.99187,-133.29991 h 6.95406 v 42.329115 h -6.95406 z m 0,-16.47811 h 6.95406 v 8.80596 h -6.95406 z"
         style="stroke-width:1.93505"
         id="path1347" />
    </g>
    <text
       style="font-size:35.2778px;line-height:1.25;font-family:Gilroy-Regular;-inkscape-font-specification:Gilroy-Regular;letter-spacing:0px;word-spacing:0px;white-space:pre;shape-inside:url(#rect1328);"
       id="text1322"
       xml:space="preserve"><tspan
         style="visibility:hidden"
         x="177.83398"
         y="204.83368"><tspan
           dx="0 22.393135 20.877293 11.213795 26.38945 21.394058 21.549088 26.527252 24.132904 19.654282 10.404205 22.28978 11.213791 24.511871 10.404205 21.876373">by NATHALIE RIVA</tspan></tspan></text>
  </g>
  <g
     id="g294"
     style="display:none">
    <text
       style="font-size:35.2778px;line-height:1.25;font-family:Gilroy-Regular;-inkscape-font-specification:Gilroy-Regular;letter-spacing:0px;word-spacing:0px;white-space:pre;shape-inside:url(#rect296);"
       id="text286"
       xml:space="preserve"><tspan
         style="visibility:hidden"
         x="177.83398"
         y="204.83368"><tspan
           dx="0 22.393135 20.877293 11.213795 26.38945 21.394058 21.549088 26.527252 24.132904 19.654282 10.404205 22.28978 11.213791 24.511871 10.404205 21.876373">by NATHALIE RIVA</tspan></tspan></text>
    <g
       id="g390"
       transform="matrix(1.1650548,0,0,1.1650548,-2.057949,-30.586275)">
      <path
         id="path256"
         d="M 292.35847,179.21423 255.7214,77.749881 305.44315,85.004611 302.41218,5.3435642 353.43059,109.7834 295.98045,103.98128 Z"
         style="fill:url(#linearGradient418);fill-opacity:1;stroke:none;stroke-width:0.239752px;stroke-linecap:butt;stroke-linejoin:miter;stroke-opacity:1" />
      <path
         style="mix-blend-mode:normal;fill:url(#linearGradient420);fill-opacity:1;stroke:none;stroke-width:0.240942px;stroke-linecap:butt;stroke-linejoin:miter;stroke-opacity:1"
         d="m 292.03091,185.30985 -34.14113,-102.326097 16.27181,2.747533 35.99205,6.07735 -5.10861,-81.231201 51.5259,104.439835 -58.02163,-5.80212 z"
         id="path258" />
      <g
         id="g266"
         transform="matrix(0.97010092,0,0,0.9602142,4.0684458,6.6533864)">
        <path
           d="m 33.46868,142.70055 q 2.277753,0.77094 4.415333,3.29398 2.172625,2.52305 4.345249,6.93838 l 7.18368,14.29727 h -7.604184 l -6.693085,-13.42121 q -2.593136,-5.25635 -5.046093,-6.97342 -2.417925,-1.71707 -6.623002,-1.71707 h -7.709312 v 22.1117 H 8.658721 v -52.31819 h 15.979293 q 8.970839,0 13.386171,3.74953 4.415333,3.74953 4.415333,11.31867 0,4.94097 -2.312798,8.1999 -2.277745,3.25894 -6.65804,4.52046 z M 15.737266,120.72902 v 18.57243 h 8.900748 q 5.116183,0 7.709312,-2.34783 2.628174,-2.38288 2.628174,-6.97343 0,-4.59054 -2.628174,-6.90334 -2.593129,-2.34783 -7.709312,-2.34783 z"
           style="font-style:normal;font-weight:normal;font-size:10.5833px;line-height:1.25;font-family:sans-serif;letter-spacing:0px;word-spacing:0px;white-space:pre;fill:#d4aa00;fill-opacity:1;stroke:none;stroke-width:6.78112"
           id="path260" />
        <path
           d="m 73.101547,121.88542 -9.601598,26.03644 h 19.238234 z m -3.994822,-6.97343 h 8.024688 l 19.939084,52.31819 h -7.35889 L 84.945853,153.80897 H 61.362369 l -4.765754,13.42121 h -7.464018 z"
           style="font-style:normal;font-weight:normal;font-size:10.5833px;line-height:1.25;font-family:sans-serif;letter-spacing:0px;word-spacing:0px;white-space:pre;fill:#d4aa00;fill-opacity:1;stroke:none;stroke-width:6.78112"
           id="path262" />
        <path
           d="m 91.954315,114.91199 h 7.604184 l 14.507521,21.51599 14.40239,-21.51599 h 7.60419 l -18.50235,27.4031 v 24.91509 h -7.11359 v -24.91509 z"
           style="font-style:normal;font-weight:normal;font-size:10.5833px;line-height:1.25;font-family:sans-serif;letter-spacing:0px;word-spacing:0px;white-space:pre;fill:#d4aa00;fill-opacity:1;stroke:none;stroke-width:6.78112"
           id="path264" />
      </g>
      <path
         d="m 161.40961,116.99351 q 5.1672,0 9.6885,2.00947 4.59307,1.9377 7.9661,5.31073 3.4448,3.37303 5.45427,7.9661 2.00946,4.59306 2.00946,9.83203 0,5.16721 -2.00946,9.76027 -1.9377,4.5213 -5.31074,7.9661 -3.37303,3.44481 -7.9661,5.45427 -4.59307,1.9377 -9.83203,1.9377 h -20.52528 v -50.23667 z m -0.71767,39.83051 q 3.0142,0 5.66957,-1.14827 2.72713,-1.14827 4.66483,-3.08597 2.00947,-2.00947 3.15774,-4.66484 1.14826,-2.72713 1.14826,-5.8131 0,-3.01419 -1.14826,-5.66956 -1.14827,-2.72714 -3.15774,-4.7366 -1.9377,-2.00947 -4.66483,-3.15773 -2.65537,-1.14827 -5.66957,-1.14827 h -9.0426 v 29.42434 z"
         style="font-style:normal;font-variant:normal;font-weight:normal;font-stretch:normal;font-size:10.5833px;line-height:1.25;font-family:Retroica;-inkscape-font-specification:Retroica;letter-spacing:0px;word-spacing:0px;white-space:pre;fill:#000000;fill-opacity:1;stroke:none;stroke-width:6.78112"
         id="path268" />
      <path
         d="m 226.14307,157.18285 v 10.04733 h -31.79264 v -50.23667 h 31.36204 v 10.04733 H 204.9719 v 10.04734 h 15.57337 v 10.04733 H 204.9719 v 10.04734 z"
         style="font-style:normal;font-variant:normal;font-weight:normal;font-stretch:normal;font-size:10.5833px;line-height:1.25;font-family:Retroica;-inkscape-font-specification:Retroica;letter-spacing:0px;word-spacing:0px;white-space:pre;fill:#000000;fill-opacity:1;stroke:none;stroke-width:6.78112"
         id="path270" />
      <path
         d="m 273.29368,153.37921 q 0,4.306 -1.79417,7.24844 -1.7224,2.87067 -4.66483,4.66483 -2.94243,1.7224 -6.74606,2.51183 -3.73187,0.78944 -7.67904,0.78944 -6.8896,0 -12.0568,-3.2295 -5.09544,-3.2295 -8.39671,-8.1814 l 9.47321,-5.5978 q 0.78943,1.36356 1.9377,2.65536 1.22003,1.22004 2.65537,2.22477 1.43533,0.93297 3.08596,1.57887 1.7224,0.57416 3.4448,0.57416 1.43533,0 3.15774,-0.14356 1.7224,-0.2153 3.2295,-0.71767 1.5071,-0.57416 2.51183,-1.5071 1.00474,-0.93297 1.00474,-2.51183 0,-1.36357 -0.86121,-2.29654 -0.78943,-0.93297 -2.22476,-1.65063 -1.43534,-0.71767 -3.37303,-1.22004 -1.9377,-0.50234 -4.16248,-1.00473 -2.94243,-0.6459 -6.17192,-1.57887 -3.22951,-1.00473 -5.95664,-2.72713 -2.65537,-1.7224 -4.44954,-4.44954 -1.7224,-2.79889 -1.7224,-7.10489 0,-3.94717 1.57887,-6.96137 1.57887,-3.08597 4.16247,-5.09544 2.5836,-2.00946 5.88486,-3.01419 3.30127,-1.07651 6.74608,-1.07651 6.31546,0 11.26736,3.08597 5.02367,3.0142 8.46847,7.82257 l -8.97083,6.10016 q -0.64591,-1.22003 -1.72241,-2.44006 -1.0765,-1.22003 -2.44006,-2.22477 -1.36357,-1.00473 -3.0142,-1.65063 -1.57887,-0.6459 -3.37303,-0.6459 -1.36357,0 -2.72714,0.35885 -1.36357,0.35886 -2.51183,1.0765 -1.07651,0.71767 -1.79417,1.79417 -0.71767,1.00473 -0.71767,2.29653 0,1.14827 0.78943,2.00947 0.78944,0.78943 2.08124,1.43534 1.36357,0.57415 3.08597,1.07649 1.79417,0.50235 3.80363,1.00473 3.15773,0.78944 6.53077,1.86594 3.37303,1.00473 6.17193,2.87067 2.7989,1.79417 4.59307,4.66483 1.86593,2.87067 1.86593,7.3202 z"
         style="font-style:normal;font-variant:normal;font-weight:normal;font-stretch:normal;font-size:10.5833px;line-height:1.25;font-family:Retroica;-inkscape-font-specification:Retroica;letter-spacing:0px;word-spacing:0px;white-space:pre;fill:#000000;fill-opacity:1;stroke:none;stroke-width:6.78112"
         id="path272" />
      <path
         d="m 339.39065,127.04084 h -14.56863 v 40.18934 h -10.765 v -40.18934 h -14.64041 v -10.04733 h 39.97404 z"
         style="font-style:normal;font-variant:normal;font-weight:normal;font-stretch:normal;font-size:10.5833px;line-height:1.25;font-family:Retroica;-inkscape-font-specification:Retroica;letter-spacing:0px;word-spacing:0px;white-space:pre;fill:#000000;fill-opacity:1;stroke:none;stroke-width:6.78112"
         id="path274" />
      <path
         d="m 378.57511,157.18285 v 10.04733 h -31.79264 v -50.23667 h 31.36204 v 10.04733 h -20.74058 v 10.04734 h 15.57337 v 10.04733 h -15.57337 v 10.04734 z"
         style="font-style:normal;font-variant:normal;font-weight:normal;font-stretch:normal;font-size:10.5833px;line-height:1.25;font-family:Retroica;-inkscape-font-specification:Retroica;letter-spacing:0px;word-spacing:0px;white-space:pre;fill:#000000;fill-opacity:1;stroke:none;stroke-width:6.78112"
         id="path276" />
      <g
         aria-label="i"
         transform="matrix(-1.28047,0.03106061,-0.0204981,-0.7207573,71.485632,56.736758)"
         id="g280"
         style="font-style:normal;font-weight:normal;font-size:77.4018px;line-height:1.25;font-family:sans-serif;letter-spacing:0px;word-spacing:0px;fill:#000000;fill-opacity:1;stroke:none;stroke-width:1.93505">
        <path
           d="m -170.99187,-133.29991 h 6.95406 v 42.329115 h -6.95406 z m 0,-16.47811 h 6.95406 v 8.80596 h -6.95406 z"
           style="stroke-width:1.93505"
           id="path278" />
      </g>
      <text
         transform="matrix(0.81962883,0,0,0.75559091,92.287457,193.40176)"
         style="font-style:normal;font-variant:normal;font-weight:normal;font-stretch:normal;font-size:14.3569px;line-height:17.9461px;font-family:'Atten New';-inkscape-font-specification:'Atten New';letter-spacing:7.32393px;word-spacing:0px;white-space:pre;shape-inside:url(#rect298);display:inline;opacity:1;fill:#000000;"
         id="text292"
         xml:space="preserve"><tspan
           x="-98.513672"
           y="-11.412755"><tspan
             style="font-style:normal;font-variant:normal;font-weight:normal;font-stretch:normal;font-size:14.3569px;font-family:'Atten New';-inkscape-font-specification:'Atten New';fill:#000000">BY YULIANNY BETANCOURT</tspan></tspan></text>
    </g>
  </g>
  <g
     id="g338"
     style="display:none">
    <g
       id="g416"
       transform="matrix(1.1650548,0,0,1.1650548,-2.057949,-30.586275)">
      <path
         id="path300"
         d="M 292.35847,179.21423 255.7214,77.749881 305.44315,85.004611 302.41218,5.3435642 353.43059,109.7834 295.98045,103.98128 Z"
         style="fill:url(#linearGradient422);fill-opacity:1;stroke:none;stroke-width:0.239752px;stroke-linecap:butt;stroke-linejoin:miter;stroke-opacity:1" />
      <path
         style="mix-blend-mode:normal;fill:url(#linearGradient424);fill-opacity:1;stroke:none;stroke-width:0.240942px;stroke-linecap:butt;stroke-linejoin:miter;stroke-opacity:1"
         d="m 292.03091,185.30985 -34.14113,-102.326097 16.27181,2.747533 35.99205,6.07735 -5.10861,-81.231201 51.5259,104.439835 -58.02163,-5.80212 z"
         id="path302" />
      <g
         id="g310"
         transform="matrix(0.97010092,0,0,0.9602142,4.0684458,6.6533864)">
        <path
           d="m 33.46868,142.70055 q 2.277753,0.77094 4.415333,3.29398 2.172625,2.52305 4.345249,6.93838 l 7.18368,14.29727 h -7.604184 l -6.693085,-13.42121 q -2.593136,-5.25635 -5.046093,-6.97342 -2.417925,-1.71707 -6.623002,-1.71707 h -7.709312 v 22.1117 H 8.658721 v -52.31819 h 15.979293 q 8.970839,0 13.386171,3.74953 4.415333,3.74953 4.415333,11.31867 0,4.94097 -2.312798,8.1999 -2.277745,3.25894 -6.65804,4.52046 z M 15.737266,120.72902 v 18.57243 h 8.900748 q 5.116183,0 7.709312,-2.34783 2.628174,-2.38288 2.628174,-6.97343 0,-4.59054 -2.628174,-6.90334 -2.593129,-2.34783 -7.709312,-2.34783 z"
           style="font-style:normal;font-weight:normal;font-size:10.5833px;line-height:1.25;font-family:sans-serif;letter-spacing:0px;word-spacing:0px;white-space:pre;fill:#d4aa00;fill-opacity:1;stroke:none;stroke-width:6.78112"
           id="path304" />
        <path
           d="m 73.101547,121.88542 -9.601598,26.03644 h 19.238234 z m -3.994822,-6.97343 h 8.024688 l 19.939084,52.31819 h -7.35889 L 84.945853,153.80897 H 61.362369 l -4.765754,13.42121 h -7.464018 z"
           style="font-style:normal;font-weight:normal;font-size:10.5833px;line-height:1.25;font-family:sans-serif;letter-spacing:0px;word-spacing:0px;white-space:pre;fill:#d4aa00;fill-opacity:1;stroke:none;stroke-width:6.78112"
           id="path306" />
        <path
           d="m 91.954315,114.91199 h 7.604184 l 14.507521,21.51599 14.40239,-21.51599 h 7.60419 l -18.50235,27.4031 v 24.91509 h -7.11359 v -24.91509 z"
           style="font-style:normal;font-weight:normal;font-size:10.5833px;line-height:1.25;font-family:sans-serif;letter-spacing:0px;word-spacing:0px;white-space:pre;fill:#d4aa00;fill-opacity:1;stroke:none;stroke-width:6.78112"
           id="path308" />
      </g>
      <path
         d="m 161.40961,116.99351 q 5.1672,0 9.6885,2.00947 4.59307,1.9377 7.9661,5.31073 3.4448,3.37303 5.45427,7.9661 2.00946,4.59306 2.00946,9.83203 0,5.16721 -2.00946,9.76027 -1.9377,4.5213 -5.31074,7.9661 -3.37303,3.44481 -7.9661,5.45427 -4.59307,1.9377 -9.83203,1.9377 h -20.52528 v -50.23667 z m -0.71767,39.83051 q 3.0142,0 5.66957,-1.14827 2.72713,-1.14827 4.66483,-3.08597 2.00947,-2.00947 3.15774,-4.66484 1.14826,-2.72713 1.14826,-5.8131 0,-3.01419 -1.14826,-5.66956 -1.14827,-2.72714 -3.15774,-4.7366 -1.9377,-2.00947 -4.66483,-3.15773 -2.65537,-1.14827 -5.66957,-1.14827 h -9.0426 v 29.42434 z"
         style="font-style:normal;font-variant:normal;font-weight:normal;font-stretch:normal;font-size:10.5833px;line-height:1.25;font-family:Retroica;-inkscape-font-specification:Retroica;letter-spacing:0px;word-spacing:0px;white-space:pre;fill:#000000;fill-opacity:1;stroke:none;stroke-width:6.78112"
         id="path312" />
      <path
         d="m 226.14307,157.18285 v 10.04733 h -31.79264 v -50.23667 h 31.36204 v 10.04733 H 204.9719 v 10.04734 h 15.57337 v 10.04733 H 204.9719 v 10.04734 z"
         style="font-style:normal;font-variant:normal;font-weight:normal;font-stretch:normal;font-size:10.5833px;line-height:1.25;font-family:Retroica;-inkscape-font-specification:Retroica;letter-spacing:0px;word-spacing:0px;white-space:pre;fill:#000000;fill-opacity:1;stroke:none;stroke-width:6.78112"
         id="path314" />
      <path
         d="m 273.29368,153.37921 q 0,4.306 -1.79417,7.24844 -1.7224,2.87067 -4.66483,4.66483 -2.94243,1.7224 -6.74606,2.51183 -3.73187,0.78944 -7.67904,0.78944 -6.8896,0 -12.0568,-3.2295 -5.09544,-3.2295 -8.39671,-8.1814 l 9.47321,-5.5978 q 0.78943,1.36356 1.9377,2.65536 1.22003,1.22004 2.65537,2.22477 1.43533,0.93297 3.08596,1.57887 1.7224,0.57416 3.4448,0.57416 1.43533,0 3.15774,-0.14356 1.7224,-0.2153 3.2295,-0.71767 1.5071,-0.57416 2.51183,-1.5071 1.00474,-0.93297 1.00474,-2.51183 0,-1.36357 -0.86121,-2.29654 -0.78943,-0.93297 -2.22476,-1.65063 -1.43534,-0.71767 -3.37303,-1.22004 -1.9377,-0.50234 -4.16248,-1.00473 -2.94243,-0.6459 -6.17192,-1.57887 -3.22951,-1.00473 -5.95664,-2.72713 -2.65537,-1.7224 -4.44954,-4.44954 -1.7224,-2.79889 -1.7224,-7.10489 0,-3.94717 1.57887,-6.96137 1.57887,-3.08597 4.16247,-5.09544 2.5836,-2.00946 5.88486,-3.01419 3.30127,-1.07651 6.74608,-1.07651 6.31546,0 11.26736,3.08597 5.02367,3.0142 8.46847,7.82257 l -8.97083,6.10016 q -0.64591,-1.22003 -1.72241,-2.44006 -1.0765,-1.22003 -2.44006,-2.22477 -1.36357,-1.00473 -3.0142,-1.65063 -1.57887,-0.6459 -3.37303,-0.6459 -1.36357,0 -2.72714,0.35885 -1.36357,0.35886 -2.51183,1.0765 -1.07651,0.71767 -1.79417,1.79417 -0.71767,1.00473 -0.71767,2.29653 0,1.14827 0.78943,2.00947 0.78944,0.78943 2.08124,1.43534 1.36357,0.57415 3.08597,1.07649 1.79417,0.50235 3.80363,1.00473 3.15773,0.78944 6.53077,1.86594 3.37303,1.00473 6.17193,2.87067 2.7989,1.79417 4.59307,4.66483 1.86593,2.87067 1.86593,7.3202 z"
         style="font-style:normal;font-variant:normal;font-weight:normal;font-stretch:normal;font-size:10.5833px;line-height:1.25;font-family:Retroica;-inkscape-font-specification:Retroica;letter-spacing:0px;word-spacing:0px;white-space:pre;fill:#000000;fill-opacity:1;stroke:none;stroke-width:6.78112"
         id="path316" />
      <path
         d="m 339.39065,127.04084 h -14.56863 v 40.18934 h -10.765 v -40.18934 h -14.64041 v -10.04733 h 39.97404 z"
         style="font-style:normal;font-variant:normal;font-weight:normal;font-stretch:normal;font-size:10.5833px;line-height:1.25;font-family:Retroica;-inkscape-font-specification:Retroica;letter-spacing:0px;word-spacing:0px;white-space:pre;fill:#000000;fill-opacity:1;stroke:none;stroke-width:6.78112"
         id="path318" />
      <path
         d="m 378.57511,157.18285 v 10.04733 h -31.79264 v -50.23667 h 31.36204 v 10.04733 h -20.74058 v 10.04734 h 15.57337 v 10.04733 h -15.57337 v 10.04734 z"
         style="font-style:normal;font-variant:normal;font-weight:normal;font-stretch:normal;font-size:10.5833px;line-height:1.25;font-family:Retroica;-inkscape-font-specification:Retroica;letter-spacing:0px;word-spacing:0px;white-space:pre;fill:#000000;fill-opacity:1;stroke:none;stroke-width:6.78112"
         id="path320" />
      <g
         aria-label="i"
         transform="matrix(-1.28047,0.03106061,-0.0204981,-0.7207573,71.485632,56.736758)"
         id="g324"
         style="font-style:normal;font-weight:normal;font-size:77.4018px;line-height:1.25;font-family:sans-serif;letter-spacing:0px;word-spacing:0px;fill:#000000;fill-opacity:1;stroke:none;stroke-width:1.93505">
        <path
           d="m -170.99187,-133.29991 h 6.95406 v 42.329115 h -6.95406 z m 0,-16.47811 h 6.95406 v 8.80596 h -6.95406 z"
           style="stroke-width:1.93505"
           id="path322" />
      </g>
      <text
         xml:space="preserve"
         id="text3329-2"
         style="font-style:normal;font-variant:normal;font-weight:normal;font-stretch:normal;font-size:14.3569px;line-height:1.25;font-family:'Atten New';-inkscape-font-specification:'Atten New';letter-spacing:13.1231px;word-spacing:0px;white-space:pre;shape-inside:url(#rect3337-6);display:inline;"
         transform="matrix(0.82095004,0,0,0.78630216,92.385086,194.1091)"><tspan
           x="-98.513672"
           y="-11.412743"><tspan
             style="font-style:normal;font-variant:normal;font-weight:normal;font-stretch:normal;font-size:14.3569px;font-family:'Atten New';-inkscape-font-specification:'Atten New'">BY NATHALIE RIVAS</tspan></tspan></text>
    </g>
    <text
       style="font-size:35.2778px;line-height:1.25;font-family:Gilroy-Regular;-inkscape-font-specification:Gilroy-Regular;letter-spacing:0px;word-spacing:0px;white-space:pre;shape-inside:url(#rect340);"
       id="text330"
       xml:space="preserve"><tspan
         style="visibility:hidden"
         x="177.83398"
         y="204.83368"><tspan
           dx="0 22.393135 20.877293 11.213795 26.38945 21.394058 21.549088 26.527252 24.132904 19.654282 10.404205 22.28978 11.213791 24.511871 10.404205 21.876373">by NATHALIE RIVA</tspan></tspan></text>
  </g>
  <g
     id="g176"
     style="display:none;mix-blend-mode:normal">
    <path
       id="path144"
       d="M 292.35847,179.21423 255.7214,77.749881 305.44315,85.004611 302.41218,5.3435642 353.43059,109.7834 295.98045,103.98128 Z"
       style="fill:url(#linearGradient1368);fill-opacity:1;stroke:none;stroke-width:0.239752px;stroke-linecap:butt;stroke-linejoin:miter;stroke-opacity:1" />
    <path
       style="mix-blend-mode:normal;fill:url(#linearGradient1370);fill-opacity:1;stroke:none;stroke-width:0.240942px;stroke-linecap:butt;stroke-linejoin:miter;stroke-opacity:1"
       d="m 292.03091,185.30985 -34.14113,-102.326097 16.27181,2.747533 35.99205,6.07735 -5.10861,-81.231201 51.5259,104.439835 -58.02163,-5.80212 z"
       id="path146" />
    <g
       id="g154"
       transform="matrix(0.97010092,0,0,0.9602142,4.0684458,6.6533864)">
      <path
         d="m 33.46868,142.70055 q 2.277753,0.77094 4.415333,3.29398 2.172625,2.52305 4.345249,6.93838 l 7.18368,14.29727 h -7.604184 l -6.693085,-13.42121 q -2.593136,-5.25635 -5.046093,-6.97342 -2.417925,-1.71707 -6.623002,-1.71707 h -7.709312 v 22.1117 H 8.658721 v -52.31819 h 15.979293 q 8.970839,0 13.386171,3.74953 4.415333,3.74953 4.415333,11.31867 0,4.94097 -2.312798,8.1999 -2.277745,3.25894 -6.65804,4.52046 z M 15.737266,120.72902 v 18.57243 h 8.900748 q 5.116183,0 7.709312,-2.34783 2.628174,-2.38288 2.628174,-6.97343 0,-4.59054 -2.628174,-6.90334 -2.593129,-2.34783 -7.709312,-2.34783 z"
         style="font-style:normal;font-weight:normal;font-size:10.5833px;line-height:1.25;font-family:sans-serif;letter-spacing:0px;word-spacing:0px;white-space:pre;fill:#d4aa00;fill-opacity:1;stroke:none;stroke-width:6.78112"
         id="path148" />
      <path
         d="m 73.101547,121.88542 -9.601598,26.03644 h 19.238234 z m -3.994822,-6.97343 h 8.024688 l 19.939084,52.31819 h -7.35889 L 84.945853,153.80897 H 61.362369 l -4.765754,13.42121 h -7.464018 z"
         style="font-style:normal;font-weight:normal;font-size:10.5833px;line-height:1.25;font-family:sans-serif;letter-spacing:0px;word-spacing:0px;white-space:pre;fill:#d4aa00;fill-opacity:1;stroke:none;stroke-width:6.78112"
         id="path150" />
      <path
         d="m 91.954315,114.91199 h 7.604184 l 14.507521,21.51599 14.40239,-21.51599 h 7.60419 l -18.50235,27.4031 v 24.91509 h -7.11359 v -24.91509 z"
         style="font-style:normal;font-weight:normal;font-size:10.5833px;line-height:1.25;font-family:sans-serif;letter-spacing:0px;word-spacing:0px;white-space:pre;fill:#d4aa00;fill-opacity:1;stroke:none;stroke-width:6.78112"
         id="path152" />
    </g>
    <path
       d="m 161.40961,116.99351 q 5.1672,0 9.6885,2.00947 4.59307,1.9377 7.9661,5.31073 3.4448,3.37303 5.45427,7.9661 2.00946,4.59306 2.00946,9.83203 0,5.16721 -2.00946,9.76027 -1.9377,4.5213 -5.31074,7.9661 -3.37303,3.44481 -7.9661,5.45427 -4.59307,1.9377 -9.83203,1.9377 h -20.52528 v -50.23667 z m -0.71767,39.83051 q 3.0142,0 5.66957,-1.14827 2.72713,-1.14827 4.66483,-3.08597 2.00947,-2.00947 3.15774,-4.66484 1.14826,-2.72713 1.14826,-5.8131 0,-3.01419 -1.14826,-5.66956 -1.14827,-2.72714 -3.15774,-4.7366 -1.9377,-2.00947 -4.66483,-3.15773 -2.65537,-1.14827 -5.66957,-1.14827 h -9.0426 v 29.42434 z"
       style="font-style:normal;font-variant:normal;font-weight:normal;font-stretch:normal;font-size:10.5833px;line-height:1.25;font-family:Retroica;-inkscape-font-specification:Retroica;letter-spacing:0px;word-spacing:0px;white-space:pre;fill:#ffffff;fill-opacity:1;stroke:none;stroke-width:6.78112"
       id="path156" />
    <path
       d="m 226.14307,157.18285 v 10.04733 h -31.79264 v -50.23667 h 31.36204 v 10.04733 H 204.9719 v 10.04734 h 15.57337 v 10.04733 H 204.9719 v 10.04734 z"
       style="font-style:normal;font-variant:normal;font-weight:normal;font-stretch:normal;font-size:10.5833px;line-height:1.25;font-family:Retroica;-inkscape-font-specification:Retroica;letter-spacing:0px;word-spacing:0px;white-space:pre;fill:#ffffff;fill-opacity:1;stroke:none;stroke-width:6.78112"
       id="path158" />
    <path
       d="m 273.29368,153.37921 q 0,4.306 -1.79417,7.24844 -1.7224,2.87067 -4.66483,4.66483 -2.94243,1.7224 -6.74606,2.51183 -3.73187,0.78944 -7.67904,0.78944 -6.8896,0 -12.0568,-3.2295 -5.09544,-3.2295 -8.39671,-8.1814 l 9.47321,-5.5978 q 0.78943,1.36356 1.9377,2.65536 1.22003,1.22004 2.65537,2.22477 1.43533,0.93297 3.08596,1.57887 1.7224,0.57416 3.4448,0.57416 1.43533,0 3.15774,-0.14356 1.7224,-0.2153 3.2295,-0.71767 1.5071,-0.57416 2.51183,-1.5071 1.00474,-0.93297 1.00474,-2.51183 0,-1.36357 -0.86121,-2.29654 -0.78943,-0.93297 -2.22476,-1.65063 -1.43534,-0.71767 -3.37303,-1.22004 -1.9377,-0.50234 -4.16248,-1.00473 -2.94243,-0.6459 -6.17192,-1.57887 -3.22951,-1.00473 -5.95664,-2.72713 -2.65537,-1.7224 -4.44954,-4.44954 -1.7224,-2.79889 -1.7224,-7.10489 0,-3.94717 1.57887,-6.96137 1.57887,-3.08597 4.16247,-5.09544 2.5836,-2.00946 5.88486,-3.01419 3.30127,-1.07651 6.74608,-1.07651 6.31546,0 11.26736,3.08597 5.02367,3.0142 8.46847,7.82257 l -8.97083,6.10016 q -0.64591,-1.22003 -1.72241,-2.44006 -1.0765,-1.22003 -2.44006,-2.22477 -1.36357,-1.00473 -3.0142,-1.65063 -1.57887,-0.6459 -3.37303,-0.6459 -1.36357,0 -2.72714,0.35885 -1.36357,0.35886 -2.51183,1.0765 -1.07651,0.71767 -1.79417,1.79417 -0.71767,1.00473 -0.71767,2.29653 0,1.14827 0.78943,2.00947 0.78944,0.78943 2.08124,1.43534 1.36357,0.57415 3.08597,1.07649 1.79417,0.50235 3.80363,1.00473 3.15773,0.78944 6.53077,1.86594 3.37303,1.00473 6.17193,2.87067 2.7989,1.79417 4.59307,4.66483 1.86593,2.87067 1.86593,7.3202 z"
       style="font-style:normal;font-variant:normal;font-weight:normal;font-stretch:normal;font-size:10.5833px;line-height:1.25;font-family:Retroica;-inkscape-font-specification:Retroica;letter-spacing:0px;word-spacing:0px;white-space:pre;fill:#ffffff;fill-opacity:1;stroke:none;stroke-width:6.78112"
       id="path160" />
    <path
       d="m 339.39065,127.04084 h -14.56863 v 40.18934 h -10.765 v -40.18934 h -14.64041 v -10.04733 h 39.97404 z"
       style="font-style:normal;font-variant:normal;font-weight:normal;font-stretch:normal;font-size:10.5833px;line-height:1.25;font-family:Retroica;-inkscape-font-specification:Retroica;letter-spacing:0px;word-spacing:0px;white-space:pre;fill:#ffffff;fill-opacity:1;stroke:none;stroke-width:6.78112"
       id="path162" />
    <path
       d="m 378.57511,157.18285 v 10.04733 h -31.79264 v -50.23667 h 31.36204 v 10.04733 h -20.74058 v 10.04734 h 15.57337 v 10.04733 h -15.57337 v 10.04734 z"
       style="font-style:normal;font-variant:normal;font-weight:normal;font-stretch:normal;font-size:10.5833px;line-height:1.25;font-family:Retroica;-inkscape-font-specification:Retroica;letter-spacing:0px;word-spacing:0px;white-space:pre;fill:#ffffff;fill-opacity:1;stroke:none;stroke-width:6.78112"
       id="path164" />
    <g
       aria-label="i"
       transform="matrix(-1.28047,0.03106061,-0.0204981,-0.7207573,71.485632,56.736758)"
       id="g168"
       style="font-style:normal;font-weight:normal;font-size:77.4018px;line-height:1.25;font-family:sans-serif;letter-spacing:0px;word-spacing:0px;fill:#ffffff;fill-opacity:1;stroke:none;stroke-width:1.93505">
      <path
         d="m -170.99187,-133.29991 h 6.95406 v 42.329115 h -6.95406 z m 0,-16.47811 h 6.95406 v 8.80596 h -6.95406 z"
         style="fill:#ffffff;stroke-width:1.93505"
         id="path166" />
    </g>
    <text
       style="font-size:35.2778px;line-height:1.25;font-family:Gilroy-Regular;-inkscape-font-specification:Gilroy-Regular;letter-spacing:0px;word-spacing:0px;white-space:pre;shape-inside:url(#rect178);"
       id="text174"
       xml:space="preserve"><tspan
         style="visibility:hidden"
         x="177.83398"
         y="204.83368"><tspan
           dx="0 22.393135 20.877293 11.213795 26.38945 21.394058 21.549088 26.527252 24.132904 19.654282 10.404205 22.28978 11.213791 24.511871 10.404205 21.876373">by NATHALIE RIVA</tspan></tspan></text>
  </g>
  <g
     style="display:none;mix-blend-mode:normal"
     id="layer6">
    <path
       id="path1031"
       d="M 83.329267,186.42287 46.692197,84.958515 96.413947,92.213244 93.382977,12.552198 144.40139,116.99204 86.951237,111.18991 Z"
       style="display:inline;fill:url(#linearGradient1037);fill-opacity:1;stroke:none;stroke-width:0.239752px;stroke-linecap:butt;stroke-linejoin:miter;stroke-opacity:1" />
    <path
       style="display:inline;mix-blend-mode:normal;fill:url(#linearGradient1035);fill-opacity:1;stroke:none;stroke-width:0.240942px;stroke-linecap:butt;stroke-linejoin:miter;stroke-opacity:1"
       d="M 83.001707,192.51849 48.860577,90.192386 65.132387,92.939922 101.12444,99.017272 96.015827,17.786069 147.54173,122.22591 89.520087,116.42379 Z"
       id="path1033" />
  </g>
</svg>
